<svg id="changeColor" fill="#ffffff" xmlns="http://www.w3.org/2000/svg" xmlns:xlink="http://www.w3.org/1999/xlink" width="24px" zoomAndPan="magnify" viewBox="0 0 375 374.9999" height="24px" preserveAspectRatio="xMidYMid meet" version="1.0"><defs><path id="pathAttribute" d="M 7.09375 7.09375 L 367.84375 7.09375 L 367.84375 367.84375 L 7.09375 367.84375 Z M 7.09375 7.09375 " fill="#ffffff"></path></defs><g><path id="pathAttribute" d="M 187.46875 7.09375 C 87.851562 7.09375 7.09375 87.851562 7.09375 187.46875 C 7.09375 287.085938 87.851562 367.84375 187.46875 367.84375 C 287.085938 367.84375 367.84375 287.085938 367.84375 187.46875 C 367.84375 87.851562 287.085938 7.09375 187.46875 7.09375 " fill-opacity="1" fill-rule="nonzero" fill="#ffffff"></path></g><g id="inner-icon" transform="translate(85, 75)"> <svg xmlns="http://www.w3.org/2000/svg" class="icon icon-tabler icon-tabler-letter-s" width="207" height="207" viewBox="0 0 24 24" stroke-width="2" stroke="currentColor" fill="none" stroke-linecap="round" stroke-linejoin="round" id="IconChangeColor"> <path stroke="#ff0000" d="M0 0h24v24H0z" fill="#ffffff" id="mainIconPathAttribute" stroke-width="0"></path> <path d="M17 8a4 4 0 0 0 -4 -4h-2a4 4 0 0 0 0 8h2a4 4 0 0 1 0 8h-2a4 4 0 0 1 -4 -4" id="mainIconPathAttribute" fill="#ffffff" stroke="#52c41a"></path> </svg> </g></svg>